<svg width="230" height="39" viewBox="0 0 230 39" fill="none" xmlns="http://www.w3.org/2000/svg">
<path fill-rule="evenodd" clip-rule="evenodd" d="M90.042 26.9979L90.0421 26.9981C90.5622 28.3234 90.6778 29.591 90.5044 30.8586C90.0998 33.5091 88.3661 35.8139 85.8233 36.851C84.8986 37.2543 83.9162 37.4272 82.876 37.4272C82.587 37.4272 82.2403 37.4272 81.9513 37.3696C80.7377 37.2543 79.5241 36.851 78.3105 36.1596C76.8657 35.3529 75.4209 34.1429 73.8028 32.4143C72.1846 34.1429 70.7976 35.3529 69.2951 36.1596C68.0815 36.851 66.8678 37.1967 65.6542 37.3696C65.5098 37.3696 65.3508 37.384 65.1919 37.3984C65.033 37.4128 64.8741 37.4272 64.7296 37.4272C63.6893 37.4272 62.7069 37.2543 61.7822 36.851C59.2972 35.8139 57.4479 33.5667 57.0434 30.8586C56.87 29.5334 57.0434 28.2658 57.5057 26.9981C57.6791 26.4796 57.8524 26.0762 58.0258 25.6729L58.0258 25.6729C58.3148 25.0391 58.6037 24.4053 58.8349 23.8291L58.8927 23.7715C61.4355 18.3553 64.0939 12.8815 66.8678 7.46528L66.9834 7.23481C67.2724 6.71626 67.5613 6.14009 67.8503 5.56393L67.8503 5.56385C67.9281 5.44192 68.0059 5.31785 68.0846 5.19247C68.4148 4.66613 68.7594 4.11668 69.1795 3.60481C70.3931 2.22195 72.0112 1.41528 73.8028 1.41528C75.5365 1.41528 77.2124 2.22195 78.3683 3.66243C78.9462 4.29624 79.3507 4.98766 79.6975 5.62147C79.9864 6.19766 80.2754 6.77385 80.5643 7.29243L80.6799 7.5229C83.5117 12.9391 86.1701 18.4129 88.6551 23.8291H88.7129C88.944 24.4053 89.233 25.0391 89.5219 25.6729L89.5219 25.6729C89.6953 26.0762 89.8686 26.537 90.042 26.9979ZM117.955 10.4615C117.955 11.7867 116.915 12.8239 115.586 12.8239C114.257 12.8239 113.216 11.7867 113.216 10.4615C113.216 9.13624 114.257 8.09909 115.586 8.09909C116.973 8.15671 117.955 9.19385 117.955 10.4615ZM108.304 15.1862V15.7624C108.304 15.7624 107.206 14.3219 104.779 14.3219C100.849 14.3219 97.7861 17.3181 97.7861 21.4667C97.7861 25.5577 100.849 28.6115 104.779 28.6115C107.206 28.6115 108.304 27.1134 108.304 27.1134V27.7472C108.304 28.0353 108.535 28.2658 108.824 28.2658H111.771V14.6677H108.824C108.477 14.6677 108.304 14.8981 108.304 15.1862ZM105.357 25.3272C106.686 25.3272 107.784 24.6358 108.304 23.8291V18.9891C107.784 18.24 106.628 17.491 105.357 17.491C103.045 17.491 101.254 18.9315 101.254 21.4091C101.254 23.8867 103.045 25.3272 105.357 25.3272ZM113.852 14.6677H117.319V28.2081H113.852V14.6677ZM162.165 15.7624C162.165 15.7624 163.321 14.322 165.691 14.322C169.62 14.322 172.683 17.3181 172.683 21.4091C172.683 25.5 169.62 28.5539 165.691 28.5539C163.263 28.5539 162.165 27.0558 162.165 27.0558V27.6896C162.165 27.9777 161.934 28.2081 161.645 28.2081H158.698V8.15671H162.165V15.7624ZM165.113 25.2696C163.783 25.2696 162.743 24.5781 162.165 23.7715V18.9315C162.685 18.1824 163.841 17.4334 165.113 17.4334C167.424 17.4334 169.216 18.8739 169.216 21.3515C169.216 23.8291 167.424 25.2696 165.113 25.2696ZM156.906 28.2658V20.1991C156.906 17.8943 156.444 16.6267 155.288 15.6472C154.248 14.7829 152.977 14.3219 151.474 14.3219C150.145 14.3219 148.816 14.7253 147.775 15.7624V15.1862C147.775 14.8981 147.544 14.6677 147.255 14.6677H144.481V28.2658H147.949V18.8162C148.642 18.0096 149.74 17.491 150.78 17.491C152.688 17.491 153.439 18.3553 153.439 20.6024V28.2658H156.906ZM136.044 14.322C133.674 14.322 132.518 15.7624 132.518 15.7624V8.15671H129.051V28.2081H131.998C132.287 28.2081 132.518 27.9777 132.518 27.6896V27.0558C132.518 27.0558 133.617 28.5539 136.044 28.5539C139.974 28.5539 143.036 25.5 143.036 21.4091C143.094 17.3181 140.031 14.322 136.044 14.322ZM132.518 23.7715C133.096 24.5781 134.137 25.2696 135.466 25.2696C137.777 25.2696 139.569 23.8291 139.569 21.3515C139.569 18.8739 137.777 17.4334 135.466 17.4334C134.194 17.4334 133.039 18.1824 132.518 18.9315V23.7715ZM126.104 14.3219C127.144 14.3219 127.722 14.4948 127.722 14.4948V17.7215C127.722 17.7215 124.832 16.742 123.041 18.8162V28.2658H119.573V14.6677H122.521C122.81 14.6677 123.041 14.8981 123.041 15.1862V15.7624C123.619 15.0134 125.006 14.3219 126.104 14.3219ZM73.745 28.8419C71.7801 26.3643 70.5087 24.0596 70.1041 22.1581C69.9308 21.3515 69.873 20.6024 69.9886 19.9686C70.0464 19.3924 70.2775 18.8739 70.5665 18.4705C71.26 17.491 72.4158 16.8572 73.745 16.8572C75.0742 16.8572 76.2878 17.4334 76.9235 18.4705C77.2124 18.9315 77.4436 19.3924 77.5014 19.9686C77.617 20.6024 77.5592 21.3515 77.3858 22.1581C76.9813 24.0596 75.7099 26.3643 73.745 28.8419ZM84.8986 34.7767C86.6902 34.0853 87.9616 32.472 88.1927 30.5705C88.3083 29.591 88.1927 28.7267 88.0194 27.8048C87.9568 27.6176 87.8773 27.4305 87.79 27.225C87.7161 27.051 87.6365 26.8638 87.557 26.6524C87.4126 26.3643 87.2825 26.0618 87.1525 25.7593C87.0225 25.4568 86.8924 25.1543 86.748 24.8662V24.8086C84.2629 19.45 81.6046 13.9762 78.8306 8.61766L78.715 8.38719C78.4261 7.811 78.1371 7.23481 77.8481 6.71624C77.5592 6.14005 77.2124 5.56385 76.8079 5.1029C76.0566 4.23862 75.0164 3.77766 73.9184 3.77766C72.8203 3.77766 71.7801 4.23862 71.0288 5.1029C70.6243 5.62147 70.2775 6.14005 69.9886 6.71624L69.9885 6.71635C69.6996 7.2925 69.4106 7.86865 69.1217 8.38719L69.0061 8.61766C66.1743 13.9762 63.516 19.45 61.0309 24.8086L60.9732 24.8662C60.6842 25.4424 60.3952 26.0762 60.1641 26.6524L60.1641 26.6525C59.9907 27.0558 59.8173 27.4591 59.7018 27.8048C59.2972 28.842 59.2394 29.7062 59.355 30.6281C59.5862 32.472 60.8576 34.0853 62.6491 34.8343C63.4582 35.1224 64.3828 35.2953 65.3653 35.18C66.2899 35.0648 67.2146 34.7767 68.1392 34.2581C69.4106 33.5091 70.7398 32.4143 72.2424 30.7434C69.873 27.8048 68.3704 25.0967 67.8503 22.7343C67.5613 21.6396 67.5035 20.6024 67.6769 19.6805C67.8503 18.7586 68.1392 17.952 68.6594 17.2029C69.7574 15.6472 71.6645 14.6677 73.745 14.6677C75.8255 14.6677 77.7326 15.5896 78.8306 17.2029C79.3507 17.952 79.6397 18.7586 79.813 19.6805C79.9286 20.6024 79.8708 21.6396 79.6397 22.7343C79.0618 25.0967 77.617 27.7472 75.2475 30.6858C76.7501 32.3567 78.0215 33.4515 79.3507 34.2005C80.3332 34.7191 81.2 35.0072 82.1247 35.1224C83.1071 35.2377 84.0318 35.1224 84.8986 34.7767Z" fill="#AEC0CE"/>
</svg>
