<svg width="230" height="39" viewBox="0 0 230 39" fill="none" xmlns="http://www.w3.org/2000/svg">
<path d="M85.4586 13.552H71.9166V17.545H81.5465C81.065 23.1715 76.3704 25.652 71.9768 25.652C66.3193 25.652 61.384 21.175 61.384 14.9435C61.384 8.83299 66.0786 4.11399 71.9768 4.11399C76.551 4.11399 79.1992 7.01799 79.1992 7.01799L81.9678 4.11399C81.9678 4.11399 78.3566 0.120991 71.7963 0.120991C63.4303 0.0604905 56.9904 7.13899 56.9904 14.8225C56.9904 22.3245 63.0692 29.645 72.037 29.645C79.9215 29.645 85.6994 24.2605 85.6994 16.214C85.6994 14.52 85.4586 13.552 85.4586 13.552Z" fill="#AEC0CE"/>
<path fill-rule="evenodd" clip-rule="evenodd" d="M86.9633 20.0255C86.9633 14.9435 90.9356 10.5875 96.4728 10.5875C101.047 10.5875 105.982 13.8545 106.042 20.1465C106.042 25.7125 101.829 29.645 96.5931 29.645C90.8152 29.645 86.9633 25.2285 86.9633 20.0255ZM101.829 20.1465C101.829 16.6375 99.2413 14.399 96.5329 14.399C93.4634 14.399 91.1162 16.819 91.1763 20.086C91.1763 23.474 93.5236 25.894 96.5329 25.894C99.3015 25.894 101.829 23.6555 101.829 20.1465Z" fill="#AEC0CE"/>
<path fill-rule="evenodd" clip-rule="evenodd" d="M107.667 20.0255C107.667 14.9435 111.64 10.5875 117.177 10.5875C121.751 10.5875 126.686 13.8545 126.747 20.1465C126.747 25.7125 122.534 29.645 117.297 29.645C111.519 29.645 107.667 25.2285 107.667 20.0255ZM122.534 20.1465C122.534 16.6375 119.946 14.399 117.237 14.399C114.168 14.399 111.82 16.819 111.881 20.086C111.881 23.474 114.228 25.894 117.237 25.894C120.006 25.894 122.534 23.6555 122.534 20.1465Z" fill="#AEC0CE"/>
<path fill-rule="evenodd" clip-rule="evenodd" d="M128.372 20.1465C128.372 15.1249 132.344 10.6479 137.46 10.6479C139.687 10.6479 141.372 11.4949 142.455 12.8259V11.1924H146.428V28.3139C146.428 35.0294 142.576 38.236 137.52 38.236C132.886 38.236 130.298 35.3925 129.034 32.67L132.705 31.1574C133.247 32.3675 134.691 34.5455 137.58 34.5455C140.589 34.5455 142.576 32.549 142.576 29.2819V27.4065C141.432 28.677 140.048 29.7055 137.339 29.7055C133.006 29.7055 128.372 25.8335 128.372 20.1465ZM142.877 20.2069C142.877 16.5769 140.289 14.3989 137.821 14.3989C135.173 14.3989 132.585 16.5164 132.524 20.2674C132.524 23.716 135.052 25.9544 137.761 25.9544C140.349 25.9544 142.877 23.9579 142.877 20.2069Z" fill="#AEC0CE"/>
<path fill-rule="evenodd" clip-rule="evenodd" d="M155.395 20.086C155.395 14.399 159.428 10.5875 164.243 10.5875C167.974 10.5875 170.803 13.1285 172.067 16.0325L172.729 17.6055L160.03 22.9295C160.812 24.3815 162.016 25.8335 164.664 25.8335C167.011 25.8335 168.456 24.563 169.298 23.232L172.609 25.4705C171.164 27.4065 168.636 29.645 164.664 29.645C159.909 29.645 155.395 26.0755 155.395 20.086ZM167.914 16.335C167.312 15.1855 166.109 14.278 164.363 14.278C161.655 14.278 159.007 17.1215 159.488 19.9045L167.914 16.335Z" fill="#AEC0CE"/>
<path d="M149.377 29.1004H153.53V1.02844H149.377V29.1004Z" fill="#AEC0CE"/>
</svg>
