<svg width="42" height="40" viewBox="0 0 42 40" fill="none" xmlns="http://www.w3.org/2000/svg">
<rect opacity="0.1" width="42" height="40" rx="20" fill="#D5E2E4"/>
<path d="M28.9583 20.5209C28.9583 20.0209 28.8958 19.6459 28.8333 19.2396H21.4583V21.8959H25.8333C25.6771 23.0521 24.5208 25.2396 21.4583 25.2396C18.8021 25.2396 16.6458 23.0521 16.6458 20.3334C16.6458 15.9896 21.7708 13.9896 24.5208 16.6459L26.6458 14.6146C25.3021 13.3646 23.5208 12.5834 21.4583 12.5834C17.1458 12.5834 13.7083 16.0521 13.7083 20.3334C13.7083 24.6459 17.1458 28.0834 21.4583 28.0834C25.9271 28.0834 28.9583 24.9584 28.9583 20.5209Z" fill="#D3D6D8"/>
</svg>
