<svg width="40" height="40" viewBox="0 0 40 40" fill="none" xmlns="http://www.w3.org/2000/svg">
<rect opacity="0.1" width="40" height="40" rx="20" fill="#D5E2E4"/>
<path d="M20.3333 16.7396C18.3333 16.7396 16.7396 18.3646 16.7396 20.3334C16.7396 22.3334 18.3333 23.9271 20.3333 23.9271C22.3021 23.9271 23.9271 22.3334 23.9271 20.3334C23.9271 18.3646 22.3021 16.7396 20.3333 16.7396ZM20.3333 22.6771C19.0521 22.6771 17.9896 21.6459 17.9896 20.3334C17.9896 19.0521 19.0208 18.0209 20.3333 18.0209C21.6146 18.0209 22.6458 19.0521 22.6458 20.3334C22.6458 21.6459 21.6146 22.6771 20.3333 22.6771ZM24.8958 16.6146C24.8958 16.1459 24.5208 15.7709 24.0521 15.7709C23.5833 15.7709 23.2083 16.1459 23.2083 16.6146C23.2083 17.0834 23.5833 17.4584 24.0521 17.4584C24.5208 17.4584 24.8958 17.0834 24.8958 16.6146ZM27.2708 17.4584C27.2083 16.3334 26.9583 15.3334 26.1458 14.5209C25.3333 13.7084 24.3333 13.4584 23.2083 13.3959C22.0521 13.3334 18.5833 13.3334 17.4271 13.3959C16.3021 13.4584 15.3333 13.7084 14.4896 14.5209C13.6771 15.3334 13.4271 16.3334 13.3646 17.4584C13.3021 18.6146 13.3021 22.0834 13.3646 23.2396C13.4271 24.3646 13.6771 25.3334 14.4896 26.1771C15.3333 26.9896 16.3021 27.2396 17.4271 27.3021C18.5833 27.3646 22.0521 27.3646 23.2083 27.3021C24.3333 27.2396 25.3333 26.9896 26.1458 26.1771C26.9583 25.3334 27.2083 24.3646 27.2708 23.2396C27.3333 22.0834 27.3333 18.6146 27.2708 17.4584ZM25.7708 24.4584C25.5521 25.0834 25.0521 25.5521 24.4583 25.8021C23.5208 26.1771 21.3333 26.0834 20.3333 26.0834C19.3021 26.0834 17.1146 26.1771 16.2083 25.8021C15.5833 25.5521 15.1146 25.0834 14.8646 24.4584C14.4896 23.5521 14.5833 21.3646 14.5833 20.3334C14.5833 19.3334 14.4896 17.1459 14.8646 16.2084C15.1146 15.6146 15.5833 15.1459 16.2083 14.8959C17.1146 14.5209 19.3021 14.6146 20.3333 14.6146C21.3333 14.6146 23.5208 14.5209 24.4583 14.8959C25.0521 15.1146 25.5208 15.6146 25.7708 16.2084C26.1458 17.1459 26.0521 19.3334 26.0521 20.3334C26.0521 21.3646 26.1458 23.5521 25.7708 24.4584Z" fill="#D3D6D8"/>
</svg>
