<svg width="230" height="39" viewBox="0 0 230 39" fill="none" xmlns="http://www.w3.org/2000/svg">
<path fill-rule="evenodd" clip-rule="evenodd" d="M69.8895 33.1832L69.8894 33.1832L69.8893 33.1832C69.2208 33.2517 68.5421 33.3213 67.8471 33.4069L62.2714 17.2765V34.0933C60.529 34.2649 58.9609 34.4937 57.2766 34.7797V3.94885H61.923L68.2537 21.4521V3.94885H73.1905V32.7777C72.0997 32.9567 71.0089 33.0685 69.8896 33.1832L69.8896 33.1832L69.8895 33.1832L69.8895 33.1832ZM86.2631 15.2152H86.2632L86.2633 15.2152C87.4173 15.1873 88.5444 15.1601 89.3948 15.1601V19.9649C87.2458 19.9649 84.6903 19.9649 82.8318 20.0793V27.2293C83.7368 27.1747 84.6478 27.1143 85.5627 27.0537L85.5629 27.0537L85.5631 27.0537H85.5631H85.5631H85.5632H85.5632C87.5251 26.9237 89.5054 26.7925 91.4857 26.7145V31.3477L77.953 32.3773V3.94885H91.4857V8.75365H82.8318V15.2745C83.8129 15.2745 85.0527 15.2445 86.263 15.2152H86.263H86.2631H86.2631H86.2631ZM104.554 8.81085H109.607C109.607 8.81085 109.607 3.94885 109.665 3.94885H94.622V8.81085H99.675V31.0045C101.243 30.9473 102.927 30.9473 104.554 30.9473V8.81085ZM117.564 14.9313H124.243V19.7361H117.564V30.6613H112.743V3.94885H126.392V8.75365H117.564V14.9313ZM139.414 26.6584C137.734 26.5612 136.041 26.4632 134.349 26.4285V3.94885H129.47V30.9473C133.942 31.0617 138.298 31.2905 142.654 31.5765V26.8289C141.582 26.7839 140.5 26.7213 139.414 26.6584ZM148.426 32.0251L148.426 32.0251C149.473 32.0874 150.536 32.1507 151.598 32.2629V3.94885H146.778V31.9197C147.321 31.9593 147.871 31.9921 148.426 32.0251ZM166.757 18.5921L172.972 3.94885H167.57L164.144 12.0141L160.949 3.94885H155.722L161.414 18.4205L155.141 32.4917C155.838 32.5832 156.535 32.6564 157.232 32.7296C158.278 32.8394 159.323 32.9493 160.369 33.1209L163.97 24.9413L167.454 33.8645C168.105 33.9646 168.749 34.0718 169.391 34.1786C170.581 34.3768 171.764 34.5738 172.972 34.7225L166.757 18.5921Z" fill="#AEC0CE"/>
</svg>
