<svg width="1110" height="39" viewBox="0 0 1110 39" fill="none" xmlns="http://www.w3.org/2000/svg">
<path d="M72.2388 3.962C71.7091 2.22627 69.8549 1.29165 68.1332 1.82572C66.4115 2.35979 65.4845 4.22903 66.0142 5.96476L74.4902 32.2677C75.0862 33.8699 76.8079 34.8045 78.4634 34.3372C80.1851 33.8031 81.2446 32.0006 80.7148 30.2649C80.7148 30.1981 72.2388 3.962 72.2388 3.962Z" fill="#AEC0CE"/>
<path d="M59.1275 8.30135C58.5977 6.56563 56.7436 5.63101 55.0219 6.16508C53.3002 6.69914 52.3731 8.56839 52.9029 10.3041L61.3789 36.607C61.9749 38.2092 63.6966 39.1438 65.352 38.6765C67.0737 38.1425 68.1332 36.34 67.6035 34.6042C67.6035 34.5375 59.1275 8.30135 59.1275 8.30135Z" fill="#AEC0CE"/>
<path d="M82.9663 25.7921C84.688 25.258 85.615 23.3888 85.0853 21.653C84.5555 19.9173 82.7014 18.9827 80.9797 19.5168L54.8232 27.9951C53.234 28.5959 52.3069 30.3317 52.7704 32.0006C53.3002 33.7363 55.0881 34.8045 56.8098 34.2704C56.9422 34.2704 82.9663 25.7921 82.9663 25.7921Z" fill="#AEC0CE"/>
<path d="M60.2532 33.2024C61.9749 32.6683 64.1601 31.934 66.4778 31.1329C65.948 29.3971 65.2196 27.1941 64.425 24.8575L58.2004 26.9271L60.2532 33.2024Z" fill="#AEC0CE"/>
<path d="M73.4307 28.863C75.8146 28.0619 77.9999 27.3943 79.6553 26.7935C79.1256 25.0578 78.3972 22.8547 77.6025 20.5182L71.378 22.5877L73.4307 28.863Z" fill="#AEC0CE"/>
<path d="M78.662 12.5072C80.3837 11.9731 81.3108 10.1038 80.781 8.36812C80.2513 6.6324 78.3972 5.69778 76.6755 6.23185L50.5852 14.777C48.996 15.3778 48.0689 17.1135 48.5324 18.7825C49.0622 20.585 50.8501 21.6531 52.5718 21.0523C52.638 21.0523 78.662 12.5072 78.662 12.5072Z" fill="#AEC0CE"/>
<path d="M56.0152 19.9173C57.7369 19.3833 59.9221 18.6489 62.2398 17.8478C61.4451 15.4445 60.7829 13.2415 60.187 11.5725L53.9624 13.642L56.0152 19.9173Z" fill="#AEC0CE"/>
<path d="M69.1265 15.6448C71.5104 14.8437 73.6956 14.1761 75.3511 13.5752C74.5565 11.1719 73.8943 8.96889 73.2983 7.29993L67.0737 9.36944L69.1265 15.6448Z" fill="#AEC0CE"/>
<path d="M109.388 10.9049C110.513 11.439 110.646 11.7728 109.719 13.5085C108.792 15.311 108.593 15.3777 107.401 14.9104C105.944 14.3096 104.156 13.8423 102.964 13.8423C101.044 13.8423 99.7859 14.5099 99.7859 15.578C99.7859 19.0495 110.844 17.1802 110.844 24.6572C110.844 28.3957 107.666 30.8657 102.898 30.8657C100.382 30.8657 97.2696 29.9979 95.1506 28.9297C94.091 28.3957 94.0248 28.0619 94.9519 26.2594C95.7465 24.7239 96.0114 24.5237 97.1371 24.991C98.9912 25.7921 101.243 26.3929 102.832 26.3929C104.62 26.3929 105.746 25.6586 105.746 24.5904C105.746 21.1857 94.4884 22.7879 94.4884 15.578C94.4884 11.7728 97.6669 9.16919 102.368 9.16919C104.62 9.36947 107.467 10.0371 109.388 10.9049Z" fill="#AEC0CE"/>
<path d="M118.327 2.0928V29.8644C118.327 30.2649 117.864 30.7322 117.268 30.7322H114.354C113.692 30.7322 113.295 30.2649 113.295 29.8644V2.0928C113.295 0.690868 113.692 0.62411 115.811 0.62411C118.195 0.557351 118.327 0.757627 118.327 2.0928Z" fill="#AEC0CE"/>
<path fill-rule="evenodd" clip-rule="evenodd" d="M138.855 29.5974V17.6476C138.855 12.4404 135.345 9.36951 129.783 9.36951C127.267 9.36951 124.486 10.1706 122.499 11.5058C121.439 12.1734 121.439 12.5072 122.499 14.1761C123.625 15.8451 123.823 15.9119 124.883 15.311C126.207 14.5099 127.863 13.9759 129.253 13.9759C132.167 13.9759 133.889 15.311 133.889 17.5141V18.916C132.498 18.3152 130.776 17.9814 128.922 17.9814C123.956 17.9814 120.711 20.6517 120.711 24.6572C120.711 28.3957 123.625 30.9325 127.929 30.9325C130.18 30.9325 132.432 29.9979 133.955 28.2622L133.889 29.5306C133.822 30.1982 134.286 30.6655 134.948 30.6655H137.796C138.392 30.6655 138.855 30.265 138.855 29.5974ZM128.525 26.927C126.737 26.927 125.545 25.9924 125.545 24.5905C125.545 22.8547 127.333 21.5196 129.982 21.5196C131.24 21.5196 132.697 21.7199 133.822 22.1872V24.0564C132.697 25.8589 130.71 26.927 128.525 26.927Z" fill="#AEC0CE"/>
<path d="M158.522 10.9717C159.582 11.5725 159.582 11.9063 158.456 13.7088C157.396 15.3778 157.198 15.5113 156.006 14.9104C155.145 14.4431 153.688 14.0426 152.562 14.0426C148.92 14.0426 146.536 16.4459 146.536 20.1176C146.536 23.9229 148.92 26.4597 152.562 26.4597C153.821 26.4597 155.41 25.9924 156.403 25.3915C157.463 24.7907 157.661 24.7907 158.787 26.4597C159.78 27.9951 159.78 28.3289 158.853 28.9965C157.264 30.1314 154.681 30.9993 152.43 30.9993C145.742 30.9993 141.239 26.66 141.239 20.1844C141.239 13.7088 145.742 9.43624 152.496 9.43624C154.615 9.36948 156.999 10.0371 158.522 10.9717Z" fill="#AEC0CE"/>
<path d="M180.441 28.0619C181.301 29.1301 180.97 29.5306 178.851 30.265C176.732 31.0661 176.401 30.9993 175.673 29.9979L169.647 21.9201L166.932 24.5237V29.7977C166.932 30.1982 166.468 30.6655 165.872 30.6655H162.959C162.297 30.6655 161.899 30.1982 161.899 29.7977V2.09284C161.899 0.690904 162.297 0.624146 164.416 0.624146C166.866 0.624146 166.932 0.824421 166.932 2.09284V17.8479L175.143 9.90359C176.07 9.03573 176.534 9.10249 178.189 10.1706C179.977 11.3055 180.109 11.6393 179.249 12.5072L173.156 18.5155L180.441 28.0619Z" fill="#AEC0CE"/>
<path fill-rule="evenodd" clip-rule="evenodd" d="M289.889 33.1832L289.889 33.1832L289.889 33.1832C289.221 33.2517 288.542 33.3213 287.847 33.4069L282.271 17.2765V34.0933C280.529 34.2649 278.961 34.4937 277.277 34.7797V3.94885H281.923L288.254 21.4521V3.94885H293.19V32.7777C292.1 32.9567 291.009 33.0685 289.89 33.1832L289.89 33.1832L289.89 33.1832L289.889 33.1832ZM306.263 15.2152H306.263L306.263 15.2152C307.417 15.1873 308.544 15.1601 309.395 15.1601V19.9649C307.246 19.9649 304.69 19.9649 302.832 20.0793V27.2293C303.737 27.1747 304.648 27.1143 305.563 27.0537L305.563 27.0537L305.563 27.0537H305.563H305.563H305.563H305.563C307.525 26.9237 309.505 26.7925 311.486 26.7145V31.3477L297.953 32.3773V3.94885H311.486V8.75365H302.832V15.2745C303.813 15.2745 305.053 15.2445 306.263 15.2152H306.263H306.263H306.263H306.263ZM324.554 8.81085H329.607C329.607 8.81085 329.607 3.94885 329.665 3.94885H314.622V8.81085H319.675V31.0045C321.243 30.9473 322.927 30.9473 324.554 30.9473V8.81085ZM337.564 14.9313H344.243V19.7361H337.564V30.6613H332.743V3.94885H346.392V8.75365H337.564V14.9313ZM359.414 26.6584C357.734 26.5612 356.041 26.4632 354.349 26.4285V3.94885H349.47V30.9473C353.942 31.0617 358.298 31.2905 362.654 31.5765V26.8289C361.582 26.7839 360.5 26.7213 359.414 26.6584ZM368.426 32.0251L368.426 32.0251C369.473 32.0874 370.536 32.1507 371.598 32.2629V3.94885H366.778V31.9197C367.321 31.9593 367.871 31.9921 368.426 32.0251ZM386.757 18.5921L392.972 3.94885H387.57L384.144 12.0141L380.949 3.94885H375.722L381.414 18.4205L375.141 32.4917C375.838 32.5832 376.535 32.6564 377.232 32.7296C378.278 32.8394 379.323 32.9493 380.369 33.1209L383.97 24.9413L387.454 33.8645C388.105 33.9646 388.749 34.0718 389.391 34.1786C390.581 34.3768 391.764 34.5738 392.972 34.7225L386.757 18.5921Z" fill="#AEC0CE"/>
<path d="M525.459 13.552H511.917V17.545H521.546C521.065 23.1715 516.37 25.652 511.977 25.652C506.319 25.652 501.384 21.175 501.384 14.9435C501.384 8.83299 506.079 4.11399 511.977 4.11399C516.551 4.11399 519.199 7.01799 519.199 7.01799L521.968 4.11399C521.968 4.11399 518.357 0.120991 511.796 0.120991C503.43 0.0604905 496.99 7.13899 496.99 14.8225C496.99 22.3245 503.069 29.645 512.037 29.645C519.921 29.645 525.699 24.2605 525.699 16.214C525.699 14.52 525.459 13.552 525.459 13.552Z" fill="#AEC0CE"/>
<path fill-rule="evenodd" clip-rule="evenodd" d="M526.963 20.0255C526.963 14.9435 530.936 10.5875 536.473 10.5875C541.047 10.5875 545.982 13.8545 546.042 20.1465C546.042 25.7125 541.829 29.645 536.593 29.645C530.815 29.645 526.963 25.2285 526.963 20.0255ZM541.829 20.1465C541.829 16.6375 539.241 14.399 536.533 14.399C533.463 14.399 531.116 16.819 531.176 20.086C531.176 23.474 533.524 25.894 536.533 25.894C539.302 25.894 541.829 23.6555 541.829 20.1465Z" fill="#AEC0CE"/>
<path fill-rule="evenodd" clip-rule="evenodd" d="M547.667 20.0255C547.667 14.9435 551.64 10.5875 557.177 10.5875C561.751 10.5875 566.686 13.8545 566.747 20.1465C566.747 25.7125 562.534 29.645 557.297 29.645C551.519 29.645 547.667 25.2285 547.667 20.0255ZM562.534 20.1465C562.534 16.6375 559.946 14.399 557.237 14.399C554.168 14.399 551.82 16.819 551.881 20.086C551.881 23.474 554.228 25.894 557.237 25.894C560.006 25.894 562.534 23.6555 562.534 20.1465Z" fill="#AEC0CE"/>
<path fill-rule="evenodd" clip-rule="evenodd" d="M568.372 20.1465C568.372 15.1249 572.344 10.6479 577.46 10.6479C579.687 10.6479 581.372 11.4949 582.455 12.8259V11.1924H586.428V28.3139C586.428 35.0294 582.576 38.236 577.52 38.236C572.886 38.236 570.298 35.3925 569.034 32.67L572.705 31.1574C573.247 32.3675 574.691 34.5455 577.58 34.5455C580.589 34.5455 582.576 32.549 582.576 29.2819V27.4065C581.432 28.677 580.048 29.7055 577.339 29.7055C573.006 29.7055 568.372 25.8335 568.372 20.1465ZM582.877 20.2069C582.877 16.5769 580.289 14.3989 577.821 14.3989C575.173 14.3989 572.585 16.5164 572.524 20.2674C572.524 23.716 575.052 25.9544 577.761 25.9544C580.349 25.9544 582.877 23.9579 582.877 20.2069Z" fill="#AEC0CE"/>
<path fill-rule="evenodd" clip-rule="evenodd" d="M595.395 20.086C595.395 14.399 599.428 10.5875 604.243 10.5875C607.974 10.5875 610.803 13.1285 612.067 16.0325L612.729 17.6055L600.03 22.9295C600.812 24.3815 602.016 25.8335 604.664 25.8335C607.011 25.8335 608.456 24.563 609.298 23.232L612.609 25.4705C611.164 27.4065 608.636 29.645 604.664 29.645C599.909 29.645 595.395 26.0755 595.395 20.086ZM607.914 16.335C607.312 15.1855 606.109 14.278 604.363 14.278C601.655 14.278 599.007 17.1215 599.488 19.9045L607.914 16.335Z" fill="#AEC0CE"/>
<path d="M589.377 29.1004H593.53V1.02844H589.377V29.1004Z" fill="#AEC0CE"/>
<path fill-rule="evenodd" clip-rule="evenodd" d="M750.042 26.9979L750.042 26.9981C750.562 28.3234 750.678 29.591 750.504 30.8586C750.1 33.5091 748.366 35.8139 745.823 36.851C744.899 37.2543 743.916 37.4272 742.876 37.4272C742.587 37.4272 742.24 37.4272 741.951 37.3696C740.738 37.2543 739.524 36.851 738.31 36.1596C736.866 35.3529 735.421 34.1429 733.803 32.4143C732.185 34.1429 730.798 35.3529 729.295 36.1596C728.081 36.851 726.868 37.1967 725.654 37.3696C725.51 37.3696 725.351 37.384 725.192 37.3984C725.033 37.4128 724.874 37.4272 724.73 37.4272C723.689 37.4272 722.707 37.2543 721.782 36.851C719.297 35.8139 717.448 33.5667 717.043 30.8586C716.87 29.5334 717.043 28.2658 717.506 26.9981C717.679 26.4796 717.852 26.0762 718.026 25.6729L718.026 25.6729C718.315 25.0391 718.604 24.4053 718.835 23.8291L718.893 23.7715C721.435 18.3553 724.094 12.8815 726.868 7.46528L726.983 7.23481C727.272 6.71626 727.561 6.14009 727.85 5.56393L727.85 5.56385C727.928 5.44192 728.006 5.31785 728.085 5.19247C728.415 4.66613 728.759 4.11668 729.179 3.60481C730.393 2.22195 732.011 1.41528 733.803 1.41528C735.537 1.41528 737.212 2.22195 738.368 3.66243C738.946 4.29624 739.351 4.98766 739.697 5.62147C739.986 6.19766 740.275 6.77385 740.564 7.29243L740.68 7.5229C743.512 12.9391 746.17 18.4129 748.655 23.8291H748.713C748.944 24.4053 749.233 25.0391 749.522 25.6729L749.522 25.6729C749.695 26.0762 749.869 26.537 750.042 26.9979ZM777.955 10.4615C777.955 11.7867 776.915 12.8239 775.586 12.8239C774.257 12.8239 773.216 11.7867 773.216 10.4615C773.216 9.13624 774.257 8.09909 775.586 8.09909C776.973 8.15671 777.955 9.19385 777.955 10.4615ZM768.304 15.1862V15.7624C768.304 15.7624 767.206 14.3219 764.779 14.3219C760.849 14.3219 757.786 17.3181 757.786 21.4667C757.786 25.5577 760.849 28.6115 764.779 28.6115C767.206 28.6115 768.304 27.1134 768.304 27.1134V27.7472C768.304 28.0353 768.535 28.2658 768.824 28.2658H771.771V14.6677H768.824C768.477 14.6677 768.304 14.8981 768.304 15.1862ZM765.357 25.3272C766.686 25.3272 767.784 24.6358 768.304 23.8291V18.9891C767.784 18.24 766.628 17.491 765.357 17.491C763.045 17.491 761.254 18.9315 761.254 21.4091C761.254 23.8867 763.045 25.3272 765.357 25.3272ZM773.852 14.6677H777.319V28.2081H773.852V14.6677ZM822.165 15.7624C822.165 15.7624 823.321 14.322 825.691 14.322C829.62 14.322 832.683 17.3181 832.683 21.4091C832.683 25.5 829.62 28.5539 825.691 28.5539C823.263 28.5539 822.165 27.0558 822.165 27.0558V27.6896C822.165 27.9777 821.934 28.2081 821.645 28.2081H818.698V8.15671H822.165V15.7624ZM825.113 25.2696C823.783 25.2696 822.743 24.5781 822.165 23.7715V18.9315C822.685 18.1824 823.841 17.4334 825.113 17.4334C827.424 17.4334 829.216 18.8739 829.216 21.3515C829.216 23.8291 827.424 25.2696 825.113 25.2696ZM816.906 28.2658V20.1991C816.906 17.8943 816.444 16.6267 815.288 15.6472C814.248 14.7829 812.977 14.3219 811.474 14.3219C810.145 14.3219 808.816 14.7253 807.775 15.7624V15.1862C807.775 14.8981 807.544 14.6677 807.255 14.6677H804.481V28.2658H807.949V18.8162C808.642 18.0096 809.74 17.491 810.78 17.491C812.688 17.491 813.439 18.3553 813.439 20.6024V28.2658H816.906ZM796.044 14.322C793.674 14.322 792.518 15.7624 792.518 15.7624V8.15671H789.051V28.2081H791.998C792.287 28.2081 792.518 27.9777 792.518 27.6896V27.0558C792.518 27.0558 793.617 28.5539 796.044 28.5539C799.974 28.5539 803.036 25.5 803.036 21.4091C803.094 17.3181 800.031 14.322 796.044 14.322ZM792.518 23.7715C793.096 24.5781 794.137 25.2696 795.466 25.2696C797.777 25.2696 799.569 23.8291 799.569 21.3515C799.569 18.8739 797.777 17.4334 795.466 17.4334C794.194 17.4334 793.039 18.1824 792.518 18.9315V23.7715ZM786.104 14.3219C787.144 14.3219 787.722 14.4948 787.722 14.4948V17.7215C787.722 17.7215 784.832 16.742 783.041 18.8162V28.2658H779.573V14.6677H782.521C782.81 14.6677 783.041 14.8981 783.041 15.1862V15.7624C783.619 15.0134 785.006 14.3219 786.104 14.3219ZM733.745 28.8419C731.78 26.3643 730.509 24.0596 730.104 22.1581C729.931 21.3515 729.873 20.6024 729.989 19.9686C730.046 19.3924 730.278 18.8739 730.566 18.4705C731.26 17.491 732.416 16.8572 733.745 16.8572C735.074 16.8572 736.288 17.4334 736.923 18.4705C737.212 18.9315 737.444 19.3924 737.501 19.9686C737.617 20.6024 737.559 21.3515 737.386 22.1581C736.981 24.0596 735.71 26.3643 733.745 28.8419ZM744.899 34.7767C746.69 34.0853 747.962 32.472 748.193 30.5705C748.308 29.591 748.193 28.7267 748.019 27.8048C747.957 27.6176 747.877 27.4305 747.79 27.225C747.716 27.051 747.637 26.8638 747.557 26.6524C747.413 26.3643 747.283 26.0618 747.153 25.7593C747.022 25.4568 746.892 25.1543 746.748 24.8662V24.8086C744.263 19.45 741.605 13.9762 738.831 8.61766L738.715 8.38719C738.426 7.811 738.137 7.23481 737.848 6.71624C737.559 6.14005 737.212 5.56385 736.808 5.1029C736.057 4.23862 735.016 3.77766 733.918 3.77766C732.82 3.77766 731.78 4.23862 731.029 5.1029C730.624 5.62147 730.278 6.14005 729.989 6.71624L729.989 6.71635C729.7 7.2925 729.411 7.86865 729.122 8.38719L729.006 8.61766C726.174 13.9762 723.516 19.45 721.031 24.8086L720.973 24.8662C720.684 25.4424 720.395 26.0762 720.164 26.6524L720.164 26.6525C719.991 27.0558 719.817 27.4591 719.702 27.8048C719.297 28.842 719.239 29.7062 719.355 30.6281C719.586 32.472 720.858 34.0853 722.649 34.8343C723.458 35.1224 724.383 35.2953 725.365 35.18C726.29 35.0648 727.215 34.7767 728.139 34.2581C729.411 33.5091 730.74 32.4143 732.242 30.7434C729.873 27.8048 728.37 25.0967 727.85 22.7343C727.561 21.6396 727.504 20.6024 727.677 19.6805C727.85 18.7586 728.139 17.952 728.659 17.2029C729.757 15.6472 731.664 14.6677 733.745 14.6677C735.825 14.6677 737.733 15.5896 738.831 17.2029C739.351 17.952 739.64 18.7586 739.813 19.6805C739.929 20.6024 739.871 21.6396 739.64 22.7343C739.062 25.0967 737.617 27.7472 735.248 30.6858C736.75 32.3567 738.022 33.4515 739.351 34.2005C740.333 34.7191 741.2 35.0072 742.125 35.1224C743.107 35.2377 744.032 35.1224 744.899 34.7767Z" fill="#AEC0CE"/>
<path d="M955.074 8.23644V21.8869C955.074 26.4371 953.109 28.3281 948.486 28.3281C943.863 28.3281 941.898 26.4371 941.898 21.8869V7.64551H937.448C937.043 7.64551 936.87 7.82279 936.87 8.23644V22.0642C936.87 29.6872 941.609 32.3464 948.486 32.3464C955.363 32.3464 960.102 29.6872 960.102 22.0642V7.64551H955.652C955.305 7.64551 955.074 7.82279 955.074 8.23644Z" fill="#AEC0CE"/>
<path d="M1019.63 11.6047C1019.97 11.6047 1020.15 11.4866 1020.26 11.1911L1021.53 7.94097C1021.59 7.76369 1021.53 7.64551 1021.36 7.64551H1003.45C1001.77 7.64551 1001.13 8.17735 1001.13 9.35921V30.5145C1001.13 31.5191 1001.6 31.9327 1002.93 31.9327H1019.63C1019.97 31.9327 1020.15 31.8146 1020.26 31.5191L1021.53 28.269C1021.59 28.0917 1021.53 27.9735 1021.36 27.9735H1006.05V23.6597C1006.05 22.1824 1006.85 21.4733 1008.99 21.4733H1015.64C1015.99 21.4733 1016.16 21.3551 1016.27 21.0596L1017.49 17.9277C1017.55 17.7504 1017.49 17.6322 1017.32 17.6322H1005.99V11.6047H1019.63Z" fill="#AEC0CE"/>
<path fill-rule="evenodd" clip-rule="evenodd" d="M990.847 13.7912C990.847 16.0958 990.038 18.0459 988.073 19.1096C990.731 19.8778 991.945 22.3006 991.887 25.1961C991.887 30.0418 988.535 31.9327 983.854 31.9327H971.429C970.1 31.9327 969.638 31.5191 969.638 30.5145V9.35921C969.638 8.17735 970.273 7.64551 971.949 7.64551H982.12C986.57 7.64551 990.847 8.41372 990.847 13.7912ZM974.608 11.5456H982.467C985.068 11.5456 985.819 12.5502 985.819 14.6776C985.819 16.7458 985.068 17.8095 982.467 17.8095H974.608V11.5456ZM983.392 28.0326H974.608V23.6006C974.608 22.1233 975.417 21.4142 977.555 21.4142H983.392C986.166 21.4142 986.975 22.537 986.975 24.7234C986.975 26.9689 986.166 28.0326 983.392 28.0326Z" fill="#AEC0CE"/>
<path fill-rule="evenodd" clip-rule="evenodd" d="M1047.31 22.1824L1052.63 31.5191C1052.74 31.6373 1052.74 31.9327 1052.34 31.9327H1047.83C1047.5 31.9327 1047.38 31.769 1047.21 31.5464C1047.21 31.5374 1047.2 31.5283 1047.19 31.5191L1042.4 22.6551H1038C1035.87 22.6551 1035.06 23.3643 1035.06 24.8416V31.9327H1030.72C1030.32 31.9327 1030.14 31.7555 1030.14 31.3418V9.35921C1030.14 8.17735 1030.78 7.64551 1032.46 7.64551H1042.63C1048.52 7.64551 1052.11 9.24102 1052.11 15.1503C1052.11 19.7005 1049.97 21.4733 1047.31 22.1824ZM1035.06 18.9323H1043.32C1046.44 18.9323 1047.08 17.6913 1047.08 15.2094C1047.08 12.7866 1046.38 11.5456 1043.32 11.5456H1035.06V18.9323Z" fill="#AEC0CE"/>
</svg>
