<svg width="122" height="18" viewBox="0 0 122 18" fill="none" xmlns="http://www.w3.org/2000/svg">
<path d="M8.09375 1.5625L6.0625 5.71875L1.46875 6.375C0.65625 6.5 0.34375 7.5 0.9375 8.09375L4.21875 11.3125L3.4375 15.8438C3.3125 16.6562 4.1875 17.2812 4.90625 16.9062L9 14.75L13.0625 16.9062C13.7812 17.2812 14.6562 16.6562 14.5312 15.8438L13.75 11.3125L17.0312 8.09375C17.625 7.5 17.3125 6.5 16.5 6.375L11.9375 5.71875L9.875 1.5625C9.53125 0.84375 8.46875 0.8125 8.09375 1.5625Z" fill="#FAAD13"/>
<path d="M34.0938 1.5625L32.0625 5.71875L27.4688 6.375C26.6562 6.5 26.3438 7.5 26.9375 8.09375L30.2188 11.3125L29.4375 15.8438C29.3125 16.6562 30.1875 17.2812 30.9062 16.9062L35 14.75L39.0625 16.9062C39.7812 17.2812 40.6562 16.6562 40.5312 15.8438L39.75 11.3125L43.0312 8.09375C43.625 7.5 43.3125 6.5 42.5 6.375L37.9375 5.71875L35.875 1.5625C35.5312 0.84375 34.4688 0.8125 34.0938 1.5625Z" fill="#FAAD13"/>
<path d="M60.0938 1.5625L58.0625 5.71875L53.4688 6.375C52.6562 6.5 52.3438 7.5 52.9375 8.09375L56.2188 11.3125L55.4375 15.8438C55.3125 16.6562 56.1875 17.2812 56.9062 16.9062L61 14.75L65.0625 16.9062C65.7812 17.2812 66.6562 16.6562 66.5312 15.8438L65.75 11.3125L69.0312 8.09375C69.625 7.5 69.3125 6.5 68.5 6.375L63.9375 5.71875L61.875 1.5625C61.5312 0.84375 60.4688 0.8125 60.0938 1.5625Z" fill="#FAAD13"/>
<path d="M86.0938 1.5625L84.0625 5.71875L79.4688 6.375C78.6562 6.5 78.3438 7.5 78.9375 8.09375L82.2188 11.3125L81.4375 15.8438C81.3125 16.6562 82.1875 17.2812 82.9062 16.9062L87 14.75L91.0625 16.9062C91.7812 17.2812 92.6562 16.6562 92.5312 15.8438L91.75 11.3125L95.0312 8.09375C95.625 7.5 95.3125 6.5 94.5 6.375L89.9375 5.71875L87.875 1.5625C87.5312 0.84375 86.4688 0.8125 86.0938 1.5625Z" fill="#FAAD13"/>
<path d="M112.094 1.5625L110.062 5.71875L105.469 6.375C104.656 6.5 104.344 7.5 104.938 8.09375L108.219 11.3125L107.438 15.8438C107.312 16.6562 108.188 17.2812 108.906 16.9062L113 14.75L117.062 16.9062C117.781 17.2812 118.656 16.6562 118.531 15.8438L117.75 11.3125L121.031 8.09375C121.625 7.5 121.312 6.5 120.5 6.375L115.938 5.71875L113.875 1.5625C113.531 0.84375 112.469 0.8125 112.094 1.5625Z" fill="#FAAD13"/>
</svg>
