<svg width="230" height="39" viewBox="0 0 230 39" fill="none" xmlns="http://www.w3.org/2000/svg">
<path d="M75.0742 8.23644V21.8869C75.0742 26.4371 73.1093 28.3281 68.486 28.3281C63.8627 28.3281 61.8978 26.4371 61.8978 21.8869V7.64551H57.4479C57.0434 7.64551 56.87 7.82279 56.87 8.23644V22.0642C56.87 29.6872 61.6089 32.3464 68.486 32.3464C75.3631 32.3464 80.102 29.6872 80.102 22.0642V7.64551H75.6521C75.3053 7.64551 75.0742 7.82279 75.0742 8.23644Z" fill="#AEC0CE"/>
<path d="M139.627 11.6047C139.974 11.6047 140.147 11.4866 140.263 11.1911L141.534 7.94097C141.592 7.76369 141.534 7.64551 141.361 7.64551H123.445C121.769 7.64551 121.134 8.17735 121.134 9.35921V30.5145C121.134 31.5191 121.596 31.9327 122.925 31.9327H139.627C139.974 31.9327 140.147 31.8146 140.263 31.5191L141.534 28.269C141.592 28.0917 141.534 27.9735 141.361 27.9735H126.046V23.6597C126.046 22.1824 126.855 21.4733 128.993 21.4733H135.639C135.986 21.4733 136.159 21.3551 136.275 21.0596L137.489 17.9277C137.546 17.7504 137.489 17.6322 137.315 17.6322H125.988V11.6047H139.627Z" fill="#AEC0CE"/>
<path fill-rule="evenodd" clip-rule="evenodd" d="M110.847 13.7912C110.847 16.0958 110.038 18.0459 108.073 19.1096C110.731 19.8778 111.945 22.3006 111.887 25.1961C111.887 30.0418 108.535 31.9327 103.854 31.9327H91.429C90.0998 31.9327 89.6375 31.5191 89.6375 30.5145V9.35921C89.6375 8.17735 90.2732 7.64551 91.9492 7.64551H102.12C106.57 7.64551 110.847 8.41372 110.847 13.7912ZM94.6075 11.5456H102.467C105.068 11.5456 105.819 12.5502 105.819 14.6776C105.819 16.7458 105.068 17.8095 102.467 17.8095H94.6075V11.5456ZM103.392 28.0326H94.6075V23.6006C94.6075 22.1233 95.4166 21.4142 97.5549 21.4142H103.392C106.166 21.4142 106.975 22.537 106.975 24.7234C106.975 26.9689 106.166 28.0326 103.392 28.0326Z" fill="#AEC0CE"/>
<path fill-rule="evenodd" clip-rule="evenodd" d="M167.309 22.1824L172.625 31.5191C172.741 31.6373 172.741 31.9327 172.337 31.9327H167.829C167.496 31.9327 167.376 31.769 167.213 31.5464C167.207 31.5374 167.2 31.5283 167.193 31.5191L162.396 22.6551H158.004C155.866 22.6551 155.057 23.3643 155.057 24.8416V31.9327H150.723C150.318 31.9327 150.145 31.7555 150.145 31.3418V9.35921C150.145 8.17735 150.78 7.64551 152.456 7.64551H162.628C168.522 7.64551 172.105 9.24102 172.105 15.1503C172.105 19.7005 169.967 21.4733 167.309 22.1824ZM155.057 18.9323H163.321C166.442 18.9323 167.078 17.6913 167.078 15.2094C167.078 12.7866 166.384 11.5456 163.321 11.5456H155.057V18.9323Z" fill="#AEC0CE"/>
</svg>
